# xmcd
#
# Track frame offsets:
#	150
#	14070
#	29302
#	40745
#	55807
#	66195
#	83407
#	99845
#	117577
#	132407
#	151570
#	165705
#	181285
#	194295
#	207785
#	220920
#
# Disc length: 3141
#
# Revision: 3
# Processed by: cddbd v1.5.1PL0 Copyright (c) Steve Scherf et al.
# Submitted via: ExactAudioCopy v0.95a4
# Normalized: r2:DSETVAR1,TDELIM( - )
#
DISCID=d10c4310
DTITLE=Various Artist - Super Country '88
DYEAR=1988
DGENRE=Country
TTITLE0=Dwight Yoakam - Guitars, Cadillacs
TTITLE1=Nitty Grity Dirt Band - Fishin' In The Dark
TTITLE2=Steve Earle - Guitar Town
TTITLE3=George Strait - All My Ex's Live In Texas
TTITLE4=Ricky Skaggs - I'm Tired
TTITLE5=Steve Wariner - The Weekend
TTITLE6=Judds - I Know Where I'm Going
TTITLE7=Alabama - Tar Top
TTITLE8=Ricky Van Shelton - Somebody Lied
TTITLE9=T. G. Sheppard - One For The Money
TTITLE10=Earl Thomas Conley - Right From The Start
TTITLE11=Eddy Ravin - Shine Shine Shine
TTITLE12=T Graham Brown - Brilliant Conversationalist
TTITLE13=Dan Seals - Three Time Loser
TTITLE14=Restless Heart - Why Does It Have To Be Wrong Or Right
TTITLE15=Highway 101 - Somewhere Tonight
EXTD=
EXTT0=
EXTT1=\n
EXTT2=
EXTT3=
EXTT4=
EXTT5=
EXTT6=
EXTT7=
EXTT8=
EXTT9=\n
EXTT10=
EXTT11=
EXTT12=
EXTT13=
EXTT14=
EXTT15=
PLAYORDER=
